REM DIRINDEX 1\2,1\3,1\4,1\5,1\6
REM DIRNAME "folder01","folder02","folder03","folder04","folder05","folder06"
TITLE ""
FILE "Disc4Track40.mp3" MP3
  TRACK 01 AUDIO
    TITLE "3:cjc161_07256"
    INDEX 01 00:00:00
  TRACK 02 AUDIO
    TITLE "4:cjc161_07257"
    INDEX 01 00:01:23
  TRACK 03 AUDIO
    TITLE "5:cjc161_07258"
    INDEX 01 00:04:45
  TRACK 04 AUDIO
    TITLE "6:cjc161_07259"
    INDEX 01 00:06:01
  TRACK 05 AUDIO
    TITLE "0:"
    INDEX 01 00:10:73
  TRACK 06 AUDIO
    TITLE "3:cjc161_07260"
    INDEX 01 00:11:30
  TRACK 07 AUDIO
    TITLE "4:cjc161_07261"
    INDEX 01 00:12:66
  TRACK 08 AUDIO
    TITLE "5:cjc161_07262"
    INDEX 01 00:15:08
  TRACK 09 AUDIO
    TITLE "6:cjc161_07263"
    INDEX 01 00:16:43
  TRACK 10 AUDIO
    TITLE "0:"
    INDEX 01 00:21:67
  TRACK 11 AUDIO
    TITLE "3:cjc161_07264"
    INDEX 01 00:22:24
  TRACK 12 AUDIO
    TITLE "4:cjc161_07265"
    INDEX 01 00:23:51
  TRACK 13 AUDIO
    TITLE "5:cjc161_07266"
    INDEX 01 00:26:02
  TRACK 14 AUDIO
    TITLE "6:cjc161_07267"
    INDEX 01 00:27:27
  TRACK 15 AUDIO
    TITLE "0:"
    INDEX 01 00:32:38
  TRACK 16 AUDIO
    TITLE "3:cjc161_07268"
    INDEX 01 00:32:69
  TRACK 17 AUDIO
    TITLE "4:cjc161_07269"
    INDEX 01 00:34:15
  TRACK 18 AUDIO
    TITLE "5:cjc161_07270"
    INDEX 01 00:35:26
  TRACK 19 AUDIO
    TITLE "0:"
    INDEX 01 00:36:47
  TRACK 20 AUDIO
    TITLE "3:cjc161_07271"
    INDEX 01 00:37:06
  TRACK 21 AUDIO
    TITLE "4:cjc161_07272"
    INDEX 01 00:38:17
  TRACK 22 AUDIO
    TITLE "5:cjc161_07273"
    INDEX 01 00:40:27
  TRACK 23 AUDIO
    TITLE "6:cjc161_07274"
    INDEX 01 00:41:39
  TRACK 24 AUDIO
    TITLE "0:"
    INDEX 01 00:44:62
  TRACK 25 AUDIO
    TITLE "3:cjc161_07275"
    INDEX 01 00:45:19
  TRACK 26 AUDIO
    TITLE "4:cjc161_07276"
    INDEX 01 00:46:44
  TRACK 27 AUDIO
    TITLE "5:cjc161_07277"
    INDEX 01 00:47:75
  TRACK 28 AUDIO
    TITLE "6:cjc161_07278"
    INDEX 01 00:49:22
  TRACK 29 AUDIO
    TITLE "0:"
    INDEX 01 00:55:29
  TRACK 30 AUDIO
    TITLE "3:cjc161_07279"
    INDEX 01 00:55:60
  TRACK 31 AUDIO
    TITLE "4:cjc161_07280"
    INDEX 01 00:57:12
  TRACK 32 AUDIO
    TITLE "5:cjc161_07281"
    INDEX 01 00:58:37
  TRACK 33 AUDIO
    TITLE "6:cjc161_07282"
    INDEX 01 00:59:64
  TRACK 34 AUDIO
    TITLE "0:"
    INDEX 01 01:02:09
  TRACK 35 AUDIO
    TITLE "3:cjc161_07283"
    INDEX 01 01:02:39
  TRACK 36 AUDIO
    TITLE "4:cjc161_07284"
    INDEX 01 01:03:64
  TRACK 37 AUDIO
    TITLE "5:cjc161_07285"
    INDEX 01 01:05:70
  TRACK 38 AUDIO
    TITLE "0:"
    INDEX 01 01:07:20
  TRACK 39 AUDIO
    TITLE "3:cjc161_07286"
    INDEX 01 01:07:64
  TRACK 40 AUDIO
    TITLE "4:cjc161_07287"
    INDEX 01 01:08:75
  TRACK 41 AUDIO
    TITLE "5:cjc161_07288"
    INDEX 01 01:11:24
  TRACK 42 AUDIO
    TITLE "6:cjc161_07289"
    INDEX 01 01:12:35
  TRACK 43 AUDIO
    TITLE "0:"
    INDEX 01 01:17:50
  TRACK 44 AUDIO
    TITLE "3:cjc161_07290"
    INDEX 01 01:18:06
  TRACK 45 AUDIO
    TITLE "4:cjc161_07291"
    INDEX 01 01:19:27
  TRACK 46 AUDIO
    TITLE "5:cjc161_07292"
    INDEX 01 01:20:35
  TRACK 47 AUDIO
    TITLE "6:cjc161_07293"
    INDEX 01 01:21:54
  TRACK 48 AUDIO
    TITLE "0:"
    INDEX 01 01:23:39
  TRACK 49 AUDIO
    TITLE "3:cjc161_07294"
    INDEX 01 01:24:01
  TRACK 50 AUDIO
    TITLE "4:cjc161_07295"
    INDEX 01 01:25:22
  TRACK 51 AUDIO
    TITLE "5:cjc161_07296"
    INDEX 01 01:26:53
  TRACK 52 AUDIO
    TITLE "6:cjc161_07297"
    INDEX 01 01:27:72
  TRACK 53 AUDIO
    TITLE "0:"
    INDEX 01 01:29:67
  TRACK 54 AUDIO
    TITLE "3:cjc161_07298"
    INDEX 01 01:30:25
  TRACK 55 AUDIO
    TITLE "4:cjc161_07299"
    INDEX 01 01:31:50
  TRACK 56 AUDIO
    TITLE "5:cjc161_07300"
    INDEX 01 01:33:02
  TRACK 57 AUDIO
    TITLE "0:"
    INDEX 01 01:34:29
  TRACK 58 AUDIO
    TITLE "3:cjc161_07301"
    INDEX 01 01:34:68
  TRACK 59 AUDIO
    TITLE "4:cjc161_07302"
    INDEX 01 01:36:02
  TRACK 60 AUDIO
    TITLE "5:cjc161_07303"
    INDEX 01 01:37:08
  TRACK 61 AUDIO
    TITLE "6:cjc161_07304"
    INDEX 01 01:38:17
  TRACK 62 AUDIO
    TITLE "0:"
    INDEX 01 01:40:12
  TRACK 63 AUDIO
    TITLE "3:cjc161_07305"
    INDEX 01 01:40:43
  TRACK 64 AUDIO
    TITLE "4:cjc161_07306"
    INDEX 01 01:41:64
  TRACK 65 AUDIO
    TITLE "5:cjc161_07307"
    INDEX 01 01:43:20
  TRACK 66 AUDIO
    TITLE "6:cjc161_07308"
    INDEX 01 01:44:39
  TRACK 67 AUDIO
    TITLE "0:"
    INDEX 01 01:49:40
  TRACK 68 AUDIO
    TITLE "3:cjc161_07309"
    INDEX 01 01:49:72
  TRACK 69 AUDIO
    TITLE "4:cjc161_07310"
    INDEX 01 01:51:14
  TRACK 70 AUDIO
    TITLE "5:cjc161_07311"
    INDEX 01 01:52:23
  TRACK 71 AUDIO
    TITLE "0:"
    INDEX 01 01:53:40
  TRACK 72 AUDIO
    TITLE "3:cjc161_07312"
    INDEX 01 01:54:06
  TRACK 73 AUDIO
    TITLE "4:cjc161_07313"
    INDEX 01 01:55:23
  TRACK 74 AUDIO
    TITLE "5:cjc161_07314"
    INDEX 01 01:56:27
  TRACK 75 AUDIO
    TITLE "6:cjc161_07315"
    INDEX 01 01:57:44
  TRACK 76 AUDIO
    TITLE "0:"
    INDEX 01 01:59:43
